<svg width="28" height="28" viewBox="0 0 28 28" fill="none" xmlns="http://www.w3.org/2000/svg">
<path d="M14 0.25C17.3068 0.25 19.7618 0.250402 21.6475 0.503906C23.5256 0.756421 24.8016 1.25593 25.7725 2.22656C26.7434 3.19749 27.2435 4.47407 27.4961 6.35254C27.7496 8.23818 27.75 10.6932 27.75 14C27.75 17.3068 27.7496 19.7618 27.4961 21.6475C27.2435 23.5259 26.7434 24.8016 25.7725 25.7725C24.8016 26.7434 23.5259 27.2435 21.6475 27.4961C19.7618 27.7496 17.3068 27.75 14 27.75C10.6932 27.75 8.23818 27.7496 6.35254 27.4961C4.47407 27.2435 3.19749 26.7434 2.22656 25.7725C1.25593 24.8016 0.756421 23.5256 0.503906 21.6475C0.250402 19.7618 0.25 17.3068 0.25 14C0.25 10.6932 0.250404 8.23819 0.503906 6.35254C0.756461 4.47406 1.25563 3.19749 2.22656 2.22656C3.19749 1.25563 4.47406 0.756461 6.35254 0.503906C8.23819 0.250404 10.6932 0.25 14 0.25ZM11.4189 16.5811C10.9113 16.0734 10.0887 16.0734 9.58105 16.5811L8.39941 17.7617L7.21973 16.5811C6.71205 16.0734 5.88854 16.0734 5.38086 16.5811C4.87328 17.0887 4.87328 17.9113 5.38086 18.4189L6.56152 19.5996L5.38086 20.7812C4.87337 21.289 4.87325 22.1115 5.38086 22.6191C5.88855 23.1268 6.71205 23.1268 7.21973 22.6191L8.40039 21.4385L9.58105 22.6191C10.0887 23.1267 10.9113 23.1267 11.4189 22.6191C11.9266 22.1115 11.9265 21.2889 11.4189 20.7812L10.2373 19.5996L11.4189 18.4189C11.9266 17.9113 11.9266 17.0887 11.4189 16.5811ZM16.7998 20.4004C16.0819 20.4005 15.5 20.9823 15.5 21.7002C15.5001 22.418 16.082 22.9999 16.7998 23H22.4004C23.1181 22.9998 23.7001 22.4179 23.7002 21.7002C23.7002 20.9824 23.1182 20.4006 22.4004 20.4004H16.7998ZM16.7998 16.2002C16.0819 16.2003 15.5 16.7821 15.5 17.5C15.5 18.2179 16.0819 18.7997 16.7998 18.7998H22.4004C23.1182 18.7996 23.7002 18.2178 23.7002 17.5C23.7002 16.7822 23.1182 16.2004 22.4004 16.2002H16.7998ZM8.40039 5C7.68248 5 7.0997 5.5819 7.09961 6.2998V7.7998H5.59961C4.88195 7.80002 4.30001 8.38195 4.2998 9.09961C4.2998 9.81746 4.88183 10.4002 5.59961 10.4004H7.09961V11.9004C7.09982 12.6182 7.68255 13.2002 8.40039 13.2002C9.11805 13.2 9.69998 12.618 9.7002 11.9004V10.4004H11.2002C11.9181 10.4003 12.5 9.81753 12.5 9.09961C12.4998 8.38188 11.9179 7.79991 11.2002 7.7998H9.7002V6.2998C9.7001 5.58203 9.11812 5.00021 8.40039 5ZM16.7998 7.7998C16.0821 7.79991 15.5002 8.38186 15.5 9.09961C15.5 9.81751 16.0819 10.4003 16.7998 10.4004H22.4004C23.1182 10.4002 23.7002 9.81745 23.7002 9.09961C23.7 8.38192 23.118 7.80002 22.4004 7.7998H16.7998Z" fill="#FFE7EB" stroke="#B5CCB0" stroke-width="0.5"/>
</svg>
