<svg width="28" height="28" viewBox="0 0 28 28" fill="none" xmlns="http://www.w3.org/2000/svg">
<path d="M8.68924 4.34476V8.68924H4.34476H0V9.14648V9.604H4.34476H8.68952V13.72V17.836H4.34476H0V18.2932V18.7505H4.34476H8.68952V23.0952V27.44H9.14676H9.604V23.0952V18.7505H13.72H17.836V23.0952V27.44H18.2932H18.7505V23.0952V18.7505H23.0952H27.44V18.2932V17.836H23.0952H18.7508V13.72V9.604H23.0955H27.44V9.14676V8.68952H23.0952H18.7508V4.34476V-7.69272e-07H18.2935H17.836V4.34476V8.68924H13.72H9.604V4.34448V-7.69272e-07H9.14676H8.68952V4.34476H8.68924ZM17.836 13.72V17.836H13.72H9.604V13.72V9.604H13.72H17.836V13.72Z" fill="#B5CCB0"/>
<path d="M12.9825 10.1472C11.9591 10.3701 10.9415 11.1706 10.4728 12.1251C9.93549 13.2171 9.93549 14.2232 10.4728 15.3152C10.8102 16.0012 11.4388 16.6301 12.1248 16.9672C13.2168 17.5045 14.2229 17.5045 15.3149 16.9672C16.0009 16.6301 16.6297 16.0012 16.9669 15.3152C17.5042 14.2232 17.5042 13.2171 16.9669 12.1251C16.6297 11.4391 16.0009 10.8103 15.3149 10.4731C14.5261 10.0786 13.7771 9.97559 12.9825 10.1472ZM14.4345 11.0617C15.6523 11.382 16.464 12.4396 16.464 13.72C16.464 15.2693 15.2692 16.464 13.72 16.464C12.1707 16.464 10.976 15.2693 10.976 13.72C10.976 11.8964 12.6624 10.6045 14.4345 11.0617Z" fill="#FBD9E5"/>
<path d="M22.1292 1.00025C21.1061 1.22313 20.0883 2.02365 19.6196 2.97817C19.3567 3.50989 19.208 4.08137 19.208 4.57305C19.208 5.87085 20.0712 7.23137 21.2716 7.82021C22.3636 8.35753 23.3696 8.35753 24.4616 7.82021C25.1476 7.48281 25.7765 6.85421 26.1136 6.16821C26.651 5.07621 26.651 4.07017 26.1136 2.97845C25.7765 2.29245 25.1476 1.66357 24.4616 1.32645C23.6726 0.931653 22.9239 0.828613 22.1292 1.00025ZM23.5813 1.91501C24.799 2.23505 25.6108 3.29261 25.6108 4.57333C25.6108 6.12257 24.416 7.31733 22.8668 7.31733C21.3175 7.31733 20.1228 6.12257 20.1228 4.57333C20.1228 2.74941 21.8092 1.45749 23.5813 1.91501Z" fill="#FBD9E5"/>
<path d="M1.37206 10.5475L1.05762 10.862L2.48674 12.2911L3.91586 13.7202L2.48674 15.1493L1.05762 16.5785L1.38914 16.9044L1.71506 17.2359L3.14418 15.8068L4.5733 14.3777L6.00242 15.8068L7.43154 17.2359L7.75746 16.9044L8.08926 16.5785L6.66014 15.1493L5.23074 13.7202L6.65986 12.2911L8.08898 10.862L7.75746 10.5361L7.43154 10.2045L6.00242 11.6337L4.5733 13.0628L3.15566 11.6451C2.3781 10.8676 1.72654 10.2331 1.71506 10.2331C1.69798 10.2331 1.54342 10.3759 1.37206 10.5475Z" fill="#B5CCB0"/>
<path d="M3.83604 19.2937C2.81264 19.5166 1.79511 20.3171 1.32639 21.2716C1.06347 21.8034 0.914795 22.3751 0.914795 22.8665C0.914795 24.1643 1.77803 25.5248 2.97839 26.1137C4.07039 26.651 5.07643 26.651 6.16816 26.1137C6.85416 25.7766 7.48304 25.1477 7.82016 24.4617C8.35748 23.3697 8.35748 22.3636 7.82016 21.2716C7.48276 20.5856 6.85416 19.9568 6.16816 19.6196C5.37939 19.2251 4.6304 19.1224 3.83604 19.2937ZM5.28784 20.2085C6.50556 20.5285 7.31728 21.5861 7.31728 22.8668C7.31728 24.416 6.12252 25.6108 4.57328 25.6108C3.02404 25.6108 1.82927 24.416 1.82927 22.8668C1.82927 21.0432 3.51572 19.7512 5.28784 20.2085Z" fill="#FBD9E5"/>
<path d="M19.6653 19.6937L19.3508 20.0082L20.7799 21.4373L22.2091 22.8664L20.7799 24.2955L19.3508 25.7249L19.6823 26.0509L20.0083 26.3824L21.4374 24.9533L22.8665 23.5241L24.2956 24.9533L25.7248 26.3824L26.0507 26.0509L26.3822 25.7249L24.9531 24.2958L23.524 22.8667L24.9531 21.4376L26.3822 20.0085L26.0507 19.6825L25.725 19.3507L24.2959 20.7799L22.8668 22.209L21.4491 20.7913C20.6716 20.0138 20.02 19.3793 20.0085 19.3793C19.9912 19.3793 19.8369 19.5224 19.6653 19.6937Z" fill="#B5CCB0"/>
</svg>
