<svg width="24" height="28" viewBox="0 0 24 28" fill="none" xmlns="http://www.w3.org/2000/svg">
<path d="M1.66309 10.1816C1.64242 8.62491 2.0834 7.10991 2.91113 5.84082C2.96476 5.75861 3.01932 5.67676 3.07617 5.59668L3.14062 5.50684L3.11719 5.39941C3.10237 5.33121 3.08808 5.26282 3.0752 5.19434C2.80983 3.7831 2.95624 2.31184 3.50684 0.978516C3.61749 0.710586 3.81872 0.500666 4.06543 0.385742L4.17285 0.342773L4.17578 0.341797H4.17773L4.17676 0.34082L4.18164 0.338867L4.1875 0.336914L4.18848 0.337891L4.20996 0.330078L4.21094 0.331055C4.22479 0.3269 4.24035 0.322702 4.25684 0.318359L4.25586 0.317383C4.28918 0.308609 4.32866 0.300466 4.37305 0.291992C4.46195 0.27503 4.57255 0.260417 4.70508 0.253906C4.97091 0.240845 5.31977 0.260364 5.75488 0.356445C6.48098 0.516812 7.44076 0.887721 8.6582 1.66211C8.73748 1.71253 8.81797 1.76446 8.89941 1.81836L8.99121 1.87891L9.09766 1.85254C9.17911 1.83253 9.26105 1.81357 9.34277 1.79492C11.5591 1.28931 13.853 1.28928 16.0693 1.79492C16.151 1.81355 16.2328 1.83251 16.3145 1.85254L16.4209 1.87891L16.5127 1.81836C16.5941 1.76449 16.6746 1.71258 16.7539 1.66211C17.9701 0.888133 18.9272 0.516931 19.6514 0.356445C20.0854 0.260251 20.4336 0.240792 20.6992 0.253906C20.8315 0.26044 20.9422 0.2749 21.0312 0.291992C21.0754 0.300484 21.1142 0.309546 21.1475 0.318359C21.1633 0.32255 21.1783 0.326139 21.1914 0.330078V0.331055L21.2158 0.337891L21.2227 0.339844V0.34082L21.2275 0.342773V0.341797L21.2305 0.34375C21.5235 0.443332 21.7669 0.670616 21.8936 0.973633C22.4508 2.30679 22.6007 3.78048 22.3359 5.19434C22.3231 5.26273 22.3097 5.33131 22.2949 5.39941L22.2715 5.50684L22.335 5.59668C22.3919 5.67678 22.4473 5.75845 22.501 5.84082C23.3287 7.10991 23.7697 8.62491 23.749 10.1816V10.1846C23.7471 13.5824 22.7488 15.8624 21.0947 17.3096C20.132 18.1517 19.0066 18.6568 17.8682 18.9678C17.7859 18.9903 17.7033 19.0119 17.6211 19.0322L17.3613 19.0967L17.4424 19.3516C17.4664 19.4266 17.4892 19.5023 17.5098 19.5781C17.6596 20.1294 17.7193 20.7045 17.6846 21.2783L17.6836 21.2861V26.5996C17.6836 27.2455 17.1865 27.7498 16.5967 27.75H8.86328C8.27343 27.7498 7.77637 27.2455 7.77637 26.5996C7.77637 26.4681 7.77568 26.2101 7.77441 25.875L7.77246 25.5986L7.49805 25.627C6.90081 25.6889 6.29713 25.6355 5.71973 25.4707C5.12685 25.3014 4.57347 25.0179 4.0918 24.6357V24.6348C3.61425 24.2559 3.21625 23.7882 2.91992 23.2578L2.91699 23.2529L2.77344 23.0381C2.61859 22.8318 2.42985 22.6522 2.21484 22.5078H2.21387C1.92403 22.3134 1.59414 22.1873 1.24902 22.1387C0.612111 22.0492 0.172133 21.4656 0.261719 20.8389C0.351414 20.2116 0.937905 19.7718 1.5752 19.8613C2.27184 19.9593 2.93706 20.2133 3.51953 20.6045C4.02924 20.9467 4.46391 21.3862 4.7998 21.8955L4.9375 22.1182L4.9502 22.1396C5.10049 22.4103 5.30269 22.6487 5.54492 22.8408C5.78759 23.0333 6.06574 23.1757 6.36328 23.2607C6.66095 23.3457 6.97268 23.3721 7.28027 23.3369C7.37998 23.3255 7.47882 23.3072 7.57617 23.2832L7.7666 23.2363V22.9941L7.81445 20.4482V20.4473C7.81485 20.4258 7.81582 20.4044 7.81738 20.3828C7.83738 20.1076 7.88117 19.8363 7.94629 19.5723C7.9618 19.5094 7.97816 19.4466 7.99609 19.3848L8.06836 19.1367L7.81738 19.0732C7.6907 19.0409 7.56378 19.0058 7.4375 18.9688C6.33147 18.6451 5.24178 18.1349 4.30664 17.3076C2.66101 15.8517 1.6651 13.5731 1.66309 10.1846V10.1816Z" fill="#FEE8EB" stroke="#B5CCB0" stroke-width="0.5"/>
</svg>
