<svg width="15" height="15" viewBox="0 0 15 15" fill="none" xmlns="http://www.w3.org/2000/svg">
<path d="M12.774 0.963445L7.35377 6.3837L1.93352 0.963445C1.80316 0.844149 1.63179 0.779751 1.45513 0.783665C1.27846 0.787579 1.11011 0.859505 0.985162 0.984458C0.860209 1.10941 0.788283 1.27776 0.784369 1.45442C0.780454 1.63109 0.844853 1.80246 0.964149 1.93282L6.38165 7.35307L0.962774 12.7719C0.896571 12.835 0.843649 12.9107 0.807118 12.9946C0.770587 13.0784 0.751185 13.1687 0.750053 13.2601C0.74892 13.3516 0.76608 13.4423 0.800523 13.5271C0.834966 13.6118 0.885997 13.6887 0.950618 13.7535C1.01524 13.8182 1.09214 13.8693 1.17681 13.9039C1.26148 13.9384 1.3522 13.9557 1.44365 13.9547C1.5351 13.9537 1.62542 13.9344 1.70931 13.898C1.7932 13.8616 1.86896 13.8088 1.93215 13.7427L7.35377 8.32382L12.774 13.7441C12.9044 13.8634 13.0758 13.9278 13.2524 13.9239C13.4291 13.9199 13.5974 13.848 13.7224 13.7231C13.8473 13.5981 13.9193 13.4298 13.9232 13.2531C13.9271 13.0764 13.8627 12.9051 13.7434 12.7747L8.32315 7.35445L13.7434 1.93282C13.8096 1.86973 13.8625 1.79404 13.8991 1.7102C13.9356 1.62636 13.955 1.53607 13.9561 1.44462C13.9573 1.35318 13.9401 1.26243 13.9056 1.17771C13.8712 1.09299 13.8202 1.01602 13.7556 0.951305C13.6909 0.886593 13.614 0.835453 13.5294 0.80089C13.4447 0.766326 13.354 0.749038 13.2625 0.750041C13.1711 0.751044 13.0808 0.770318 12.9969 0.80673C12.913 0.843142 12.8372 0.895956 12.774 0.96207V0.963445Z" fill="#FFF3F7" stroke="#FFE7EB" stroke-width="1.5"/>
</svg>
