<svg width="28" height="28" viewBox="0 0 28 28" fill="none" xmlns="http://www.w3.org/2000/svg">
<path d="M23.8574 23.8595H19.7088V17.3601C19.7088 15.8104 19.6809 13.815 17.5508 13.815C15.39 13.815 15.0592 15.5032 15.0592 17.2462V23.859H10.9106V10.497H14.8932V12.3233H14.9469C15.3455 11.6418 15.9216 11.0811 16.6136 10.701C17.3057 10.321 18.0879 10.1357 18.8769 10.1651C23.0818 10.1651 23.8574 12.9314 23.8574 16.5297V23.8595ZM6.22927 8.67022C5.75302 8.67033 5.28744 8.52919 4.89141 8.26466C4.49538 8.00013 4.18668 7.62409 4.00435 7.18409C3.82203 6.74409 3.77427 6.25991 3.86712 5.79276C3.95996 5.32562 4.18924 4.8965 4.52596 4.55968C4.86268 4.22286 5.29171 3.99347 5.75879 3.90051C6.22587 3.80755 6.71003 3.85521 7.15003 4.03745C7.59003 4.21969 7.96611 4.52833 8.23071 4.92434C8.49531 5.32034 8.63654 5.78593 8.63654 6.26221C8.63654 6.90076 8.38293 7.51317 7.9315 7.96474C7.48006 8.41631 6.86776 8.67008 6.22927 8.67022ZM8.30354 23.859H4.15069V10.497H8.30408L8.30354 23.859ZM25.9236 0.00182008H2.06568C1.79729 -0.00144255 1.5309 0.0482693 1.28175 0.14811C1.0326 0.24795 0.805584 0.395958 0.613708 0.583659C0.421831 0.77136 0.26886 0.995067 0.163551 1.24197C0.0582423 1.48888 0.00266424 1.75413 0 2.02255V25.9791C0.00637485 26.521 0.227568 27.0382 0.614988 27.4171C1.00241 27.7959 1.52437 28.0055 2.06622 27.9998H25.9236C26.4668 28.0071 26.9908 27.7984 27.3802 27.4194C27.7695 27.0405 27.9925 26.5224 28 25.9791V2.01825C27.9922 1.47527 27.7691 0.957624 27.3797 0.579171C26.9903 0.200718 26.4665 -0.00753951 25.9236 0.000208714" fill="#B5CCB0"/>
</svg>
